<?xml version="1.0" encoding="UTF-8"?>
<svg width="25px" height="23px" viewBox="0 0 25 23" version="1.1" xmlns="http://www.w3.org/2000/svg" xmlns:xlink="http://www.w3.org/1999/xlink">
    <!-- Generator: Sketch 52.3 (67297) - http://www.bohemiancoding.com/sketch -->
    <title>主页</title>
    <desc>Created with Sketch.</desc>
    <g id="Page-1" stroke="none" stroke-width="1" fill="none" fill-rule="evenodd">
        <g id="1.8轨迹地图" transform="translate(-1455.000000, -180.000000)" fill="#1296DB">
            <g id="Group-12" transform="translate(1455.000000, 180.000000)">
                <g id="Path-9">
                    <path d="M3.78521126,22.9892155 C3.78521126,19.1801472 3.78521126,15.4120598 3.78521126,11.5425986 C2.55390367,11.5425986 1.44268386,11.5425986 0,11.5425986 C4.29490523,7.58200872 8.35778561,3.83549022 12.5168449,0 C16.6585159,3.81715666 20.7235698,7.56421437 25,11.5059314 C23.6083942,11.5059314 22.5015215,11.5059314 21.2734742,11.5059314 C21.2734742,15.3818634 21.2734742,19.15049 21.2734742,23 C19.3140323,23 17.4790254,23 15.4907842,23 C15.4907842,20.4963896 15.4907842,17.9863084 15.4907842,15.4136775 C13.4645062,15.4136775 11.590919,15.4136775 9.60702487,15.4136775 C9.60702487,17.9372392 9.60702487,20.4165846 9.60702487,22.9886763 C7.66714485,22.9892155 5.83539819,22.9892155 3.78521126,22.9892155 Z" id="主页"></path>
                </g>
            </g>
        </g>
    </g>
</svg>