<?xml version="1.0" encoding="UTF-8"?>
<svg width="21px" height="29px" viewBox="0 0 21 29" version="1.1" xmlns="http://www.w3.org/2000/svg" xmlns:xlink="http://www.w3.org/1999/xlink">
    <!-- Generator: Sketch 52.3 (67297) - http://www.bohemiancoding.com/sketch -->
    <title>考勤点 copy</title>
    <desc>Created with Sketch.</desc>
    <defs>
        <path d="M16.2355507,13.8318517 C17.1278351,12.4527369 17.6665585,10.7563745 17.6665585,8.91699605 C17.6665585,4.0016285 13.7117299,0 8.96917588,0 C3.95482868,0 0,4.0016285 0,8.91699605 C0,11.0583494 0.730146448,13.005743 1.90255246,14.4901186 C2.01274732,14.6180624 2.07731903,14.6971887 2.17434567,14.7687747 C3.10005816,15.9521233 7.31057162,21.2882978 8.15379625,25.0790514 C8.25511257,25.3938575 8.51606991,25.6363636 8.69738267,25.6363636 C9.15048863,25.6363636 9.41144597,25.3938575 9.51276229,25.0790514 C10.3648202,21.251229 14.6460681,15.8520722 15.4922129,14.7687747 C15.5988945,14.6849248 15.7132473,14.5440634 15.7640061,14.4901186 C15.7640061,14.4901186 16.0877851,14.0602381 16.2355507,13.8318517 Z" id="path-1"></path>
        <filter x="-7.4%" y="-5.1%" width="120.5%" height="114.1%" filterUnits="objectBoundingBox" id="filter-2">
            <feMorphology radius="0.81" operator="dilate" in="SourceAlpha" result="shadowSpreadOuter1"></feMorphology>
            <feOffset dx="1" dy="1" in="shadowSpreadOuter1" result="shadowOffsetOuter1"></feOffset>
            <feComposite in="shadowOffsetOuter1" in2="SourceAlpha" operator="out" result="shadowOffsetOuter1"></feComposite>
            <feColorMatrix values="0 0 0 0 0   0 0 0 0 0   0 0 0 0 0  0 0 0 0.2 0" type="matrix" in="shadowOffsetOuter1"></feColorMatrix>
        </filter>
        <ellipse id="path-3" cx="5.83536585" cy="5.93181818" rx="5.83536585" ry="5.93181818"></ellipse>
    </defs>
    <g id="Page-1" stroke="none" stroke-width="1" fill="none" fill-rule="evenodd">
        <g id="SFA8.5web图标" transform="translate(-266.000000, -458.000000)">
            <g id="考勤点-copy" transform="translate(265.000000, 457.000000)">
                <g id="绿色-大" transform="translate(2.146341, 2.181818)">
                    <g id="Oval-697-+-Shape-+-Oval-696-Copy-4-+-2">
                        <g id="Oval-697-+-Shape-+-Oval-696-Copy-4">
                            <g id="Shape-+-Oval-696">
                                <g id="Shape-2">
                                    <use fill="black" fill-opacity="1" filter="url(#filter-2)" xlink:href="#path-1"></use>
                                    <path stroke="#FFFFFF" stroke-width="0.81" d="M15.7843982,15.0525438 C15.6129976,15.2714487 15.4907352,15.4281885 15.3474089,15.6139171 C15.1139404,15.9164559 14.8826147,16.2213359 14.6445049,16.5418574 C14.0142384,17.3902638 13.4086155,18.2511554 12.8405008,19.1212169 C12.1926944,20.1133255 11.6250149,21.0702688 11.1572245,21.975999 C10.5398548,23.1713428 10.1131567,24.2457839 9.89828794,25.2031279 C9.7332764,25.7158453 9.29521767,26.0413636 8.69738267,26.0413636 C8.30197354,26.0413636 7.91387518,25.6555447 7.75845894,25.1669912 C7.55228728,24.2401374 7.12156746,23.1581335 6.49775657,21.9536964 C6.02805026,21.0468002 5.45847487,20.0886875 4.80867816,19.095219 C4.25027292,18.2414782 3.65523552,17.395568 3.03539473,16.5603369 C2.62778341,16.0110836 2.37982421,15.6889512 1.88605685,15.0575667 C1.84792376,15.0264764 1.81190615,14.993335 1.77573441,14.9565352 C1.72703415,14.9069892 1.73005132,14.9104326 1.58473019,14.7411445 C0.312591427,13.1304979 -0.405,11.0806403 -0.405,8.91699605 C-0.405,3.75369235 3.75542426,-0.405 8.96917588,-0.405 C13.9551776,-0.405 18.0715585,3.79805815 18.0715585,8.91699605 C18.0715585,10.7788758 17.5409644,12.5597651 16.575586,14.0518539 C16.5281187,14.1252193 16.4639469,14.2180525 16.3860302,14.3270615 C16.3753679,14.3419657 16.3753679,14.3419657 16.364705,14.3568214 C16.2606577,14.5016678 16.1571339,14.6413392 16.0589621,14.7676541 C16.0607021,14.7658049 15.9575252,14.8822688 15.9111514,14.9308594 C15.8711579,14.9727646 15.8327498,15.0102359 15.7941558,15.0441446 C15.7902771,15.0475001 15.7870028,15.0503327 15.7843982,15.0525438 Z" fill="#4CC22B" fill-rule="evenodd"></path>
                                </g>
                                <g id="Group-3" transform="translate(2.951220, 3.000000)">
                                    <mask id="mask-4" fill="white">
                                        <use xlink:href="#path-3"></use>
                                    </mask>
                                    <use id="Mask" fill="#FFFFFF" xlink:href="#path-3"></use>
                                </g>
                            </g>
                        </g>
                    </g>
                </g>
                <path d="M6.90655296,12.5113945 C7.51478115,11.3708555 7.23893646,10.6088694 7.6297386,9.4742905 C8.04974837,8.2549158 8.43475702,8.03973198 8.43475702,8.03973198" id="Path-1286" stroke="#4CC22B" stroke-width="0.837931034" stroke-linecap="round" stroke-linejoin="round"></path>
                <path d="M9.41477951,7.17339311 C9.41477951,7.17339311 11.3402341,6.38592693 12.7398558,7.17339312 C14.1394776,7.96085931 14.6994904,9.43128178 14.6994904,10.5430645" id="Path-1287" stroke="#4CC22B" stroke-width="0.837931034" stroke-linecap="round" stroke-linejoin="round"></path>
                <path d="M14.6364757,12.0463233 C14.6364757,12.0463233 14.6286047,12.8050214 14.2038095,14.0817469" id="Path-1292" stroke="#4CC22B" stroke-width="0.837931034" stroke-linecap="round" stroke-linejoin="round"></path>
                <path d="M8.27328951,13.8625747 C8.53615694,13.5113844 8.8876885,12.9010628 9.08869782,11.9715992 C9.43870585,10.3531681 9.19082912,8.75364896 11.1158732,8.753649 C13.0409173,8.75364904 13.0634781,11.2554391 12.5859071,12.8448027 C12.3831272,13.5196575 12.049926,14.3841964 11.5701744,15.2599954" id="Path-1291" stroke="#4CC22B" stroke-width="0.837931034" stroke-linecap="round" stroke-linejoin="round"></path>
                <path d="M11.0837434,10.6128313 C11.0837434,10.6128313 11.2676254,12.8738305 9.5695284,15.0878264" id="Path-1293" stroke="#4CC22B" stroke-width="0.837931034" stroke-linecap="round" stroke-linejoin="round"></path>
            </g>
        </g>
    </g>
</svg>