<?xml version="1.0" encoding="UTF-8"?>
<svg width="22px" height="29px" viewBox="0 0 22 29" version="1.1" xmlns="http://www.w3.org/2000/svg" xmlns:xlink="http://www.w3.org/1999/xlink">
    <!-- Generator: Sketch 52.3 (67297) - http://www.bohemiancoding.com/sketch -->
    <title>红 copy</title>
    <desc>Created with Sketch.</desc>
    <defs>
        <path d="M16.3388678,13.6935332 C17.2368305,12.3282096 17.7789821,10.6488108 17.7789821,8.82782609 C17.7789821,3.96161222 13.7989863,0 9.02625245,0 C3.97999578,0 0,3.96161222 0,8.82782609 C0,10.9477659 0.734792835,12.8756856 1.91465961,14.3452174 C2.02555571,14.4718818 2.09053833,14.5502168 2.18818241,14.621087 C3.1197858,15.7926021 7.35709344,21.0754148 8.20568404,24.8282609 C8.3076451,25.1399189 8.57026308,25.38 8.75272965,25.38 C9.20871902,25.38 9.47133699,25.1399189 9.57329805,24.8282609 C10.4307781,21.0387167 14.7392703,15.6935515 15.5907997,14.621087 C15.6981601,14.5380756 15.8132407,14.3986228 15.8643225,14.3452174 C15.8643225,14.3452174 16.1901619,13.9196357 16.3388678,13.6935332 Z" id="path-1"></path>
        <filter x="-7.4%" y="-5.2%" width="120.4%" height="114.3%" filterUnits="objectBoundingBox" id="filter-2">
            <feMorphology radius="0.81" operator="dilate" in="SourceAlpha" result="shadowSpreadOuter1"></feMorphology>
            <feOffset dx="1" dy="1" in="shadowSpreadOuter1" result="shadowOffsetOuter1"></feOffset>
            <feComposite in="shadowOffsetOuter1" in2="SourceAlpha" operator="out" result="shadowOffsetOuter1"></feComposite>
            <feColorMatrix values="0 0 0 0 0   0 0 0 0 0   0 0 0 0 0  0 0 0 0.2 0" type="matrix" in="shadowOffsetOuter1"></feColorMatrix>
        </filter>
        <circle id="path-3" cx="5.8725" cy="5.8725" r="5.8725"></circle>
    </defs>
    <g id="Page-1" stroke="none" stroke-width="1" fill="none" fill-rule="evenodd">
        <g id="SFA8.5web图标" transform="translate(-345.000000, -457.000000)">
            <g id="Group" transform="translate(345.000000, 457.000000)">
                <g id="Group-23-Copy" transform="translate(3.000000, 2.000000)">
                    <g id="签到-copy-20">
                        <g id="绿色-大-copy-2">
                            <g id="Oval-697-+-Shape-+-Oval-696-Copy-4-+-2">
                                <g id="Oval-697-+-Shape-+-Oval-696-Copy-4">
                                    <g id="Shape-+-Oval-696">
                                        <g id="Shape-2">
                                            <use fill="black" fill-opacity="1" filter="url(#filter-2)" xlink:href="#path-1"></use>
                                            <path stroke="#FFFFFF" stroke-width="0.81" d="M15.8807053,14.9071865 C15.708272,15.1238298 15.5852592,15.2789677 15.4410578,15.4627919 C15.2061155,15.7622902 14.9733301,16.0641054 14.7337185,16.3814038 C14.0994855,17.2212676 13.490055,18.0734853 12.9183784,18.934766 C12.266541,19.9168157 11.6953424,20.8640346 11.2246789,21.7605099 C10.6036599,22.9433681 10.1744892,24.0064633 9.95822207,24.9541914 C9.79165463,25.4633278 9.35161663,25.785 8.75272965,25.785 C8.35813488,25.785 7.96762102,25.4030923 7.810657,24.9175841 C7.60337186,24.0008767 7.17015515,22.930296 6.54265548,21.7384368 C6.07006344,20.8408058 5.49695644,19.8924281 4.8431156,18.9090311 C4.28120891,18.0639059 3.68243039,17.2265184 3.05868849,16.3996971 C2.64853619,15.8560064 2.39901844,15.5371187 1.90219949,14.9121612 C1.86385185,14.8814034 1.82761415,14.8486015 1.79120924,14.8121667 C1.7421701,14.7630872 1.74520124,14.7664903 1.59885285,14.5987743 C0.317816266,13.0032348 -0.405,10.9720257 -0.405,8.82782609 C-0.405,3.712418 3.78221755,-0.405 9.02625245,-0.405 C14.0410409,-0.405 18.1839821,3.75639426 18.1839821,8.82782609 C18.1839821,10.6730155 17.6494945,12.4378028 16.6772432,13.91608 C16.6294275,13.9887823 16.5648145,14.0807339 16.486367,14.1887008 C16.475634,14.2034598 16.475634,14.2034598 16.4649007,14.2181705 C16.3601713,14.3615959 16.2559744,14.4998895 16.1569969,14.6251579 C16.1587694,14.6233047 16.0549314,14.7386091 16.0082396,14.7867373 C15.9679799,14.8282357 15.9293186,14.8653406 15.8904838,14.8989062 C15.8866,14.9022114 15.8833187,14.9050039 15.8807053,14.9071865 Z" fill="#E8B813" fill-rule="evenodd"></path>
                                        </g>
                                        <g id="Group-3" transform="translate(2.970000, 2.970000)">
                                            <mask id="mask-4" fill="white">
                                                <use xlink:href="#path-3"></use>
                                            </mask>
                                            <use id="Mask" fill="#FFFFFF" xlink:href="#path-3"></use>
                                        </g>
                                    </g>
                                </g>
                            </g>
                        </g>
                    </g>
                    <text id="停" font-family="PingFangSC-Semibold, PingFang SC" font-size="7.02" font-weight="500" letter-spacing="0.0842400017" fill="#262626">
                        <tspan x="5.4" y="10.78">停</tspan>
                    </text>
                </g>
            </g>
        </g>
    </g>
</svg>