<?xml version="1.0" encoding="UTF-8"?>
<svg width="20px" height="23px" viewBox="0 0 20 23" version="1.1" xmlns="http://www.w3.org/2000/svg" xmlns:xlink="http://www.w3.org/1999/xlink">
    <!-- Generator: Sketch 52.3 (67297) - http://www.bohemiancoding.com/sketch -->
    <title>定位监控-图例</title>
    <desc>Created with Sketch.</desc>
    <g id="Page-1" stroke="none" stroke-width="1" fill="none" fill-rule="evenodd">
        <g id="SFA8.5web图标" transform="translate(-521.000000, -460.000000)" fill="#F47A00">
            <path d="M527.317655,479.531804 C523.617069,478.047757 521,474.39317 521,470.12 C521,464.530878 525.477153,460 531,460 C536.522847,460 541,464.530878 541,470.12 C541,474.191022 538.624683,477.700601 535.200093,479.306781 C536.750232,480.133391 537.858991,481.458355 538.178456,483 L524.730635,483 C525.022523,481.591433 525.97332,480.363753 527.317655,479.531804 Z M531,475.64 C534.012462,475.64 536.454545,473.168612 536.454545,470.12 C536.454545,467.071388 534.012462,464.6 531,464.6 C527.987538,464.6 525.545455,467.071388 525.545455,470.12 C525.545455,473.168612 527.987538,475.64 531,475.64 Z M531,472.88 C529.493769,472.88 528.272727,471.644306 528.272727,470.12 C528.272727,468.595694 529.493769,467.36 531,467.36 C532.506231,467.36 533.727273,468.595694 533.727273,470.12 C533.727273,471.644306 532.506231,472.88 531,472.88 Z" id="定位监控-图例"></path>
        </g>
    </g>
</svg>