<?xml version="1.0" encoding="UTF-8"?>
<svg width="21px" height="28px" viewBox="0 0 21 28" version="1.1" xmlns="http://www.w3.org/2000/svg" xmlns:xlink="http://www.w3.org/1999/xlink">
    <!-- Generator: Sketch 53.2 (72643) - https://sketchapp.com -->
    <title>停3</title>
    <desc>Created with Sketch.</desc>
    <g id="Page-1" stroke="none" stroke-width="1" fill="none" fill-rule="evenodd">
        <g id="iPhone-8" transform="translate(-17.000000, -155.000000)">
            <g id="停3" transform="translate(18.000000, 155.000000)">
                <path d="M16.6907,15.7172 C16.5187,15.9342 16.3957,16.0892 16.2507,16.2732 C16.0157,16.5722 15.7837,16.8742 15.5437,17.1912 C14.9097,18.0312 14.2997,18.8832 13.7287,19.7452 C13.0767,20.7272 12.5057,21.6742 12.0347,22.5702 C11.4137,23.7532 10.9847,24.8162 10.7687,25.7642 C10.6017,26.2732 10.1617,26.5952 9.5627,26.5952 C9.1677,26.5952 8.7777,26.2132 8.6207,25.7272 C8.4137,24.8112 7.9797,23.7402 7.3527,22.5482 C6.8797,21.6512 6.3067,20.7022 5.6527,19.7192 C5.0907,18.8742 4.4927,18.0362 3.8687,17.2102 C3.4587,16.6662 3.2087,16.3472 2.7117,15.7222 C2.6737,15.6912 2.6377,15.6582 2.6017,15.6222 C2.5517,15.5732 2.5557,15.5762 2.4087,15.4092 C1.1277,13.8132 0.4047,11.7822 0.4047,9.6382 C0.4047,4.5222 4.5927,0.4052 9.8367,0.4052 C14.8507,0.4052 18.9937,4.5662 18.9937,9.6382 C18.9937,11.4832 18.4597,13.2482 17.4877,14.7262 C17.4397,14.7992 17.3747,14.8912 17.2967,14.9992 C17.2857,15.0132 17.2857,15.0132 17.2747,15.0282 C17.1697,15.1712 17.0657,15.3102 16.9667,15.4352 C16.9687,15.4332 16.8647,15.5482 16.8187,15.5972 C16.7777,15.6382 16.7397,15.6752 16.7007,15.7092 C16.6967,15.7122 16.6937,15.7152 16.6907,15.7172" id="Fill-3" fill="#E8B813"></path>
                <path d="M16.6907,15.7172 C16.5187,15.9342 16.3957,16.0892 16.2507,16.2732 C16.0157,16.5722 15.7837,16.8742 15.5437,17.1912 C14.9097,18.0312 14.2997,18.8832 13.7287,19.7452 C13.0767,20.7272 12.5057,21.6742 12.0347,22.5702 C11.4137,23.7532 10.9847,24.8162 10.7687,25.7642 C10.6017,26.2732 10.1617,26.5952 9.5627,26.5952 C9.1677,26.5952 8.7777,26.2132 8.6207,25.7272 C8.4137,24.8112 7.9797,23.7402 7.3527,22.5482 C6.8797,21.6512 6.3067,20.7022 5.6527,19.7192 C5.0907,18.8742 4.4927,18.0362 3.8687,17.2102 C3.4587,16.6662 3.2087,16.3472 2.7117,15.7222 C2.6737,15.6912 2.6377,15.6582 2.6017,15.6222 C2.5517,15.5732 2.5557,15.5762 2.4087,15.4092 C1.1277,13.8132 0.4047,11.7822 0.4047,9.6382 C0.4047,4.5222 4.5927,0.4052 9.8367,0.4052 C14.8507,0.4052 18.9937,4.5662 18.9937,9.6382 C18.9937,11.4832 18.4597,13.2482 17.4877,14.7262 C17.4397,14.7992 17.3747,14.8912 17.2967,14.9992 C17.2857,15.0132 17.2857,15.0132 17.2747,15.0282 C17.1697,15.1712 17.0657,15.3102 16.9667,15.4352 C16.9687,15.4332 16.8647,15.5482 16.8187,15.5972 C16.7777,15.6382 16.7397,15.6752 16.7007,15.7092 C16.6967,15.7122 16.6937,15.7152 16.6907,15.7172 Z" id="Stroke-5" stroke="#FFFFFF" stroke-width="0.81"></path>
                <path d="M9.6525,3.78 C12.8955,3.78 15.5245,6.409 15.5245,9.652 C15.5245,12.896 12.8955,15.525 9.6525,15.525 C6.4095,15.525 3.7805,12.896 3.7805,9.652 C3.7805,6.409 6.4095,3.78 9.6525,3.78" id="Fill-7" fill="#FFFFFF"></path>
                <text id="停" font-family="PingFangHK-Medium, PingFang HK" font-size="7.02" font-weight="400" fill="#262626">
                    <tspan x="6.21" y="11.7617801">停</tspan>
                </text>
            </g>
        </g>
    </g>
</svg>